<svg xmlns:xlink="http://www.w3.org/1999/xlink" width="75ex" height="5.509ex" style="font-size: 15px; vertical-align: -1.909ex; margin-bottom: -0.262ex; max-width: 450;" viewBox="0 -1437.2 32291.5 2372" role="img" focusable="false" xmlns="http://www.w3.org/2000/svg">
<defs>
<path stroke-width="1" id="E1-MJMAIN-28" d="M94 250Q94 319 104 381T127 488T164 576T202 643T244 695T277 729T302 750H315H319Q333 750 333 741Q333 738 316 720T275 667T226 581T184 443T167 250T184 58T225 -81T274 -167T316 -220T333 -241Q333 -250 318 -250H315H302L274 -226Q180 -141 137 -14T94 250Z"></path>
<path stroke-width="1" id="E1-MJMAIN-38" d="M70 417T70 494T124 618T248 666Q319 666 374 624T429 515Q429 485 418 459T392 417T361 389T335 371T324 363L338 354Q352 344 366 334T382 323Q457 264 457 174Q457 95 399 37T249 -22Q159 -22 101 29T43 155Q43 263 172 335L154 348Q133 361 127 368Q70 417 70 494ZM286 386L292 390Q298 394 301 396T311 403T323 413T334 425T345 438T355 454T364 471T369 491T371 513Q371 556 342 586T275 624Q268 625 242 625Q201 625 165 599T128 534Q128 511 141 492T167 463T217 431Q224 426 228 424L286 386ZM250 21Q308 21 350 55T392 137Q392 154 387 169T375 194T353 216T330 234T301 253T274 270Q260 279 244 289T218 306L210 311Q204 311 181 294T133 239T107 157Q107 98 150 60T250 21Z"></path>
<path stroke-width="1" id="E1-MJMAIN-29" d="M60 749L64 750Q69 750 74 750H86L114 726Q208 641 251 514T294 250Q294 182 284 119T261 12T224 -76T186 -143T145 -194T113 -227T90 -246Q87 -249 86 -250H74Q66 -250 63 -250T58 -247T55 -238Q56 -237 66 -225Q221 -64 221 250T66 725Q56 737 55 738Q55 746 60 749Z"></path>
<path stroke-width="1" id="E1-MJMATHI-3B4" d="M195 609Q195 656 227 686T302 717Q319 716 351 709T407 697T433 690Q451 682 451 662Q451 644 438 628T403 612Q382 612 348 641T288 671T249 657T235 628Q235 584 334 463Q401 379 401 292Q401 169 340 80T205 -10H198Q127 -10 83 36T36 153Q36 286 151 382Q191 413 252 434Q252 435 245 449T230 481T214 521T201 566T195 609ZM112 130Q112 83 136 55T204 27Q233 27 256 51T291 111T309 178T316 232Q316 267 309 298T295 344T269 400L259 396Q215 381 183 342T137 256T118 179T112 130Z"></path>
<path stroke-width="1" id="E1-MJMATHI-78" d="M52 289Q59 331 106 386T222 442Q257 442 286 424T329 379Q371 442 430 442Q467 442 494 420T522 361Q522 332 508 314T481 292T458 288Q439 288 427 299T415 328Q415 374 465 391Q454 404 425 404Q412 404 406 402Q368 386 350 336Q290 115 290 78Q290 50 306 38T341 26Q378 26 414 59T463 140Q466 150 469 151T485 153H489Q504 153 504 145Q504 144 502 134Q486 77 440 33T333 -11Q263 -11 227 52Q186 -10 133 -10H127Q78 -10 57 16T35 71Q35 103 54 123T99 143Q142 143 142 101Q142 81 130 66T107 46T94 41L91 40Q91 39 97 36T113 29T132 26Q168 26 194 71Q203 87 217 139T245 247T261 313Q266 340 266 352Q266 380 251 392T217 404Q177 404 142 372T93 290Q91 281 88 280T72 278H58Q52 284 52 289Z"></path>
<path stroke-width="1" id="E1-MJMATHI-66" d="M118 -162Q120 -162 124 -164T135 -167T147 -168Q160 -168 171 -155T187 -126Q197 -99 221 27T267 267T289 382V385H242Q195 385 192 387Q188 390 188 397L195 425Q197 430 203 430T250 431Q298 431 298 432Q298 434 307 482T319 540Q356 705 465 705Q502 703 526 683T550 630Q550 594 529 578T487 561Q443 561 443 603Q443 622 454 636T478 657L487 662Q471 668 457 668Q445 668 434 658T419 630Q412 601 403 552T387 469T380 433Q380 431 435 431Q480 431 487 430T498 424Q499 420 496 407T491 391Q489 386 482 386T428 385H372L349 263Q301 15 282 -47Q255 -132 212 -173Q175 -205 139 -205Q107 -205 81 -186T55 -132Q55 -95 76 -78T118 -61Q162 -61 162 -103Q162 -122 151 -136T127 -157L118 -162Z"></path>
<path stroke-width="1" id="E1-MJMATHI-67" d="M311 43Q296 30 267 15T206 0Q143 0 105 45T66 160Q66 265 143 353T314 442Q361 442 401 394L404 398Q406 401 409 404T418 412T431 419T447 422Q461 422 470 413T480 394Q480 379 423 152T363 -80Q345 -134 286 -169T151 -205Q10 -205 10 -137Q10 -111 28 -91T74 -71Q89 -71 102 -80T116 -111Q116 -121 114 -130T107 -144T99 -154T92 -162L90 -164H91Q101 -167 151 -167Q189 -167 211 -155Q234 -144 254 -122T282 -75Q288 -56 298 -13Q311 35 311 43ZM384 328L380 339Q377 350 375 354T369 368T359 382T346 393T328 402T306 405Q262 405 221 352Q191 313 171 233T151 117Q151 38 213 38Q269 38 323 108L331 118L384 328Z"></path>
<path stroke-width="1" id="E1-MJMAIN-3D" d="M56 347Q56 360 70 367H707Q722 359 722 347Q722 336 708 328L390 327H72Q56 332 56 347ZM56 153Q56 168 72 173H708Q722 163 722 153Q722 140 707 133H70Q56 140 56 153Z"></path>
<path stroke-width="1" id="E1-MJMAIN-2B" d="M56 237T56 250T70 270H369V420L370 570Q380 583 389 583Q402 583 409 568V270H707Q722 262 722 250T707 230H409V-68Q401 -82 391 -82H389H387Q375 -82 369 -68V230H70Q56 237 56 250Z"></path>
</defs>
<g stroke="currentColor" fill="currentColor" stroke-width="0" transform="matrix(1 0 0 -1 0 0)">
<g transform="translate(31012,0)">
<g id="mjx-eqn-8" transform="translate(0,-73)">
 <use xlink:href="#E1-MJMAIN-28"></use>
 <use xlink:href="#E1-MJMAIN-38" x="389" y="0"></use>
 <use xlink:href="#E1-MJMAIN-29" x="890" y="0"></use>
</g>
</g>
<g transform="translate(6194,0)">
<g transform="translate(-11,0)">
<g transform="translate(0,-73)">
<g transform="translate(120,0)">
<rect stroke="none" width="1144" height="60" x="0" y="220"></rect>
 <use xlink:href="#E1-MJMATHI-3B4" x="346" y="676"></use>
<g transform="translate(60,-738)">
 <use xlink:href="#E1-MJMATHI-3B4" x="0" y="0"></use>
 <use xlink:href="#E1-MJMATHI-78" x="451" y="0"></use>
</g>
</g>
 <use xlink:href="#E1-MJMAIN-28" x="1384" y="0"></use>
 <use xlink:href="#E1-MJMATHI-66" x="1773" y="0"></use>
 <use xlink:href="#E1-MJMAIN-28" x="2324" y="0"></use>
 <use xlink:href="#E1-MJMATHI-78" x="2713" y="0"></use>
 <use xlink:href="#E1-MJMAIN-29" x="3286" y="0"></use>
 <use xlink:href="#E1-MJMATHI-67" x="3675" y="0"></use>
 <use xlink:href="#E1-MJMAIN-28" x="4156" y="0"></use>
 <use xlink:href="#E1-MJMATHI-78" x="4545" y="0"></use>
 <use xlink:href="#E1-MJMAIN-29" x="5118" y="0"></use>
 <use xlink:href="#E1-MJMAIN-29" x="5507" y="0"></use>
 <use xlink:href="#E1-MJMAIN-3D" x="6174" y="0"></use>
 <use xlink:href="#E1-MJMAIN-28" x="7231" y="0"></use>
<g transform="translate(7620,0)">
<g transform="translate(120,0)">
<rect stroke="none" width="1144" height="60" x="0" y="220"></rect>
 <use xlink:href="#E1-MJMATHI-3B4" x="346" y="676"></use>
<g transform="translate(60,-738)">
 <use xlink:href="#E1-MJMATHI-3B4" x="0" y="0"></use>
 <use xlink:href="#E1-MJMATHI-78" x="451" y="0"></use>
</g>
</g>
</g>
 <use xlink:href="#E1-MJMATHI-66" x="9004" y="0"></use>
 <use xlink:href="#E1-MJMAIN-28" x="9555" y="0"></use>
 <use xlink:href="#E1-MJMATHI-78" x="9944" y="0"></use>
 <use xlink:href="#E1-MJMAIN-29" x="10517" y="0"></use>
 <use xlink:href="#E1-MJMAIN-29" x="10906" y="0"></use>
 <use xlink:href="#E1-MJMATHI-67" x="11296" y="0"></use>
 <use xlink:href="#E1-MJMAIN-28" x="11776" y="0"></use>
 <use xlink:href="#E1-MJMATHI-78" x="12166" y="0"></use>
 <use xlink:href="#E1-MJMAIN-29" x="12738" y="0"></use>
 <use xlink:href="#E1-MJMAIN-2B" x="13350" y="0"></use>
 <use xlink:href="#E1-MJMATHI-66" x="14351" y="0"></use>
 <use xlink:href="#E1-MJMAIN-28" x="14901" y="0"></use>
 <use xlink:href="#E1-MJMATHI-78" x="15291" y="0"></use>
 <use xlink:href="#E1-MJMAIN-29" x="15863" y="0"></use>
 <use xlink:href="#E1-MJMAIN-28" x="16253" y="0"></use>
<g transform="translate(16642,0)">
<g transform="translate(120,0)">
<rect stroke="none" width="1144" height="60" x="0" y="220"></rect>
 <use xlink:href="#E1-MJMATHI-3B4" x="346" y="676"></use>
<g transform="translate(60,-738)">
 <use xlink:href="#E1-MJMATHI-3B4" x="0" y="0"></use>
 <use xlink:href="#E1-MJMATHI-78" x="451" y="0"></use>
</g>
</g>
</g>
 <use xlink:href="#E1-MJMATHI-67" x="18026" y="0"></use>
 <use xlink:href="#E1-MJMAIN-28" x="18507" y="0"></use>
 <use xlink:href="#E1-MJMATHI-78" x="18896" y="0"></use>
 <use xlink:href="#E1-MJMAIN-29" x="19469" y="0"></use>
 <use xlink:href="#E1-MJMAIN-29" x="19858" y="0"></use>
</g>
</g>
</g>
</g>
</svg>